<svg xmlns="http://www.w3.org/2000/svg" xmlns:xlink="http://www.w3.org/1999/xlink" width="500" zoomAndPan="magnify" viewBox="0 0 375 374.999991" height="500" preserveAspectRatio="xMidYMid meet" version="1.0"><defs><g/><clipPath id="5e6bcda619"><path d="M 93.976562 91.433594 L 157.726562 91.433594 L 157.726562 155.183594 L 93.976562 155.183594 Z M 93.976562 91.433594 " clip-rule="nonzero"/></clipPath></defs><rect x="-37.5" width="450" fill="#ffffff" y="-37.499999" height="449.999989" fill-opacity="1"/><rect x="-37.5" width="450" fill="#ffffff" y="-37.499999" height="449.999989" fill-opacity="1"/><rect x="-37.5" width="450" fill="#ffffff" y="-37.499999" height="449.999989" fill-opacity="1"/><g clip-path="url(#5e6bcda619)"><path fill="#004aad" d="M 157.726562 123.308594 C 157.726562 124.351562 157.675781 125.394531 157.574219 126.433594 C 157.472656 127.472656 157.320312 128.503906 157.113281 129.527344 C 156.910156 130.550781 156.65625 131.5625 156.355469 132.5625 C 156.050781 133.558594 155.699219 134.542969 155.300781 135.507812 C 154.902344 136.472656 154.457031 137.414062 153.964844 138.335938 C 153.472656 139.253906 152.9375 140.148438 152.355469 141.015625 C 151.777344 141.886719 151.15625 142.722656 150.492188 143.53125 C 149.828125 144.335938 149.128906 145.109375 148.390625 145.847656 C 147.652344 146.585938 146.878906 147.285156 146.074219 147.949219 C 145.265625 148.609375 144.429688 149.230469 143.5625 149.8125 C 142.691406 150.390625 141.800781 150.925781 140.878906 151.417969 C 139.957031 151.910156 139.015625 152.359375 138.050781 152.757812 C 137.085938 153.15625 136.105469 153.507812 135.105469 153.8125 C 134.105469 154.113281 133.09375 154.367188 132.070312 154.570312 C 131.046875 154.773438 130.015625 154.925781 128.976562 155.03125 C 127.9375 155.132812 126.898438 155.183594 125.851562 155.183594 C 124.808594 155.183594 123.765625 155.132812 122.726562 155.03125 C 121.6875 154.925781 120.65625 154.773438 119.632812 154.570312 C 118.609375 154.367188 117.597656 154.113281 116.601562 153.8125 C 115.601562 153.507812 114.617188 153.15625 113.65625 152.757812 C 112.691406 152.359375 111.746094 151.910156 110.828125 151.417969 C 109.90625 150.925781 109.011719 150.390625 108.144531 149.8125 C 107.277344 149.230469 106.4375 148.609375 105.632812 147.949219 C 104.824219 147.285156 104.050781 146.585938 103.3125 145.847656 C 102.574219 145.109375 101.875 144.335938 101.210938 143.53125 C 100.550781 142.722656 99.929688 141.886719 99.347656 141.015625 C 98.769531 140.148438 98.234375 139.253906 97.742188 138.335938 C 97.25 137.414062 96.804688 136.472656 96.402344 135.507812 C 96.003906 134.542969 95.652344 133.558594 95.351562 132.5625 C 95.046875 131.5625 94.792969 130.550781 94.589844 129.527344 C 94.386719 128.503906 94.234375 127.472656 94.132812 126.433594 C 94.027344 125.394531 93.976562 124.351562 93.976562 123.308594 C 93.976562 122.265625 94.027344 121.222656 94.132812 120.183594 C 94.234375 119.144531 94.386719 118.113281 94.589844 117.089844 C 94.792969 116.066406 95.046875 115.054688 95.351562 114.054688 C 95.652344 113.054688 96.003906 112.074219 96.402344 111.109375 C 96.804688 110.144531 97.25 109.203125 97.742188 108.28125 C 98.234375 107.363281 98.769531 106.46875 99.347656 105.597656 C 99.929688 104.730469 100.550781 103.894531 101.210938 103.085938 C 101.875 102.28125 102.574219 101.507812 103.3125 100.769531 C 104.050781 100.03125 104.824219 99.332031 105.632812 98.667969 C 106.4375 98.007812 107.277344 97.386719 108.144531 96.804688 C 109.011719 96.226562 109.90625 95.6875 110.828125 95.195312 C 111.746094 94.703125 112.691406 94.257812 113.65625 93.859375 C 114.617188 93.460938 115.601562 93.109375 116.601562 92.804688 C 117.597656 92.503906 118.609375 92.25 119.632812 92.046875 C 120.65625 91.84375 121.6875 91.6875 122.726562 91.585938 C 123.765625 91.484375 124.808594 91.433594 125.851562 91.433594 C 126.898438 91.433594 127.9375 91.484375 128.976562 91.585938 C 130.015625 91.6875 131.046875 91.84375 132.070312 92.046875 C 133.09375 92.25 134.105469 92.503906 135.105469 92.804688 C 136.105469 93.109375 137.085938 93.460938 138.050781 93.859375 C 139.015625 94.257812 139.957031 94.703125 140.878906 95.195312 C 141.800781 95.6875 142.691406 96.226562 143.5625 96.804688 C 144.429688 97.386719 145.265625 98.007812 146.074219 98.667969 C 146.878906 99.332031 147.652344 100.03125 148.390625 100.769531 C 149.128906 101.507812 149.828125 102.28125 150.492188 103.085938 C 151.15625 103.894531 151.777344 104.730469 152.355469 105.597656 C 152.9375 106.46875 153.472656 107.363281 153.964844 108.28125 C 154.457031 109.203125 154.902344 110.144531 155.300781 111.109375 C 155.699219 112.074219 156.050781 113.054688 156.355469 114.054688 C 156.65625 115.054688 156.910156 116.066406 157.113281 117.089844 C 157.320312 118.113281 157.472656 119.144531 157.574219 120.183594 C 157.675781 121.222656 157.726562 122.265625 157.726562 123.308594 Z M 157.726562 123.308594 " fill-opacity="1" fill-rule="nonzero"/></g><path fill="#fefefe" d="M 138.933594 137.535156 L 125.492188 137.535156 C 124.273438 137.535156 123.269531 136.53125 123.269531 135.3125 C 123.269531 134.09375 124.273438 133.089844 125.492188 133.089844 L 138.933594 133.089844 C 140.152344 133.089844 141.15625 134.09375 141.15625 135.3125 C 141.15625 136.53125 140.152344 137.535156 138.933594 137.535156 Z M 141.5625 143.707031 L 110.167969 143.707031 C 107.582031 143.707031 105.457031 141.578125 105.457031 138.996094 L 105.457031 107.644531 C 105.457031 105.039062 107.582031 102.933594 110.167969 102.933594 L 141.5625 102.933594 C 144.144531 102.933594 146.273438 105.039062 146.273438 107.644531 L 146.273438 139.019531 C 146.226562 141.625 144.144531 143.707031 141.5625 143.707031 Z M 110.167969 104.394531 C 108.371094 104.394531 106.914062 105.851562 106.914062 107.644531 L 106.914062 139.019531 C 106.914062 140.8125 108.371094 142.269531 110.167969 142.269531 L 141.5625 142.269531 C 143.355469 142.269531 144.816406 140.8125 144.816406 139.019531 L 144.816406 107.644531 C 144.816406 105.851562 143.355469 104.394531 141.5625 104.394531 Z M 125.492188 134.523438 C 124.441406 134.523438 124.441406 136.101562 125.492188 136.101562 L 138.933594 136.101562 C 139.984375 136.101562 139.984375 134.523438 138.933594 134.523438 Z M 112.796875 137.535156 C 110.789062 137.535156 109.808594 135.097656 111.195312 133.710938 L 121.621094 123.332031 L 111.195312 112.953125 C 109.757812 111.519531 110.8125 109.105469 112.796875 109.105469 C 113.394531 109.105469 113.945312 109.320312 114.375 109.773438 L 126.355469 121.730469 C 127.238281 122.613281 127.238281 124.050781 126.355469 124.933594 L 114.375 136.914062 C 113.945312 137.296875 113.394531 137.535156 112.796875 137.535156 Z M 112.796875 110.5625 C 112.078125 110.5625 111.71875 111.425781 112.222656 111.925781 L 123.152344 122.828125 C 123.414062 123.09375 123.414062 123.570312 123.152344 123.859375 L 112.222656 134.785156 C 111.480469 135.527344 112.605469 136.652344 113.347656 135.910156 L 125.328125 123.929688 C 125.636719 123.617188 125.636719 123.117188 125.328125 122.804688 L 113.347656 110.800781 C 113.179688 110.660156 112.988281 110.5625 112.796875 110.5625 Z M 112.796875 110.5625 " fill-opacity="1" fill-rule="evenodd"/><g fill="#0071a8" fill-opacity="1"><g transform="translate(97.176758, 178.647103)"><g><path d="M 9.109375 -18.078125 C 10.378906 -18.078125 11.457031 -17.910156 12.34375 -17.578125 C 13.226562 -17.242188 14.039062 -16.769531 14.78125 -16.15625 L 12.71875 -13.6875 C 12.238281 -14.09375 11.707031 -14.410156 11.125 -14.640625 C 10.539062 -14.867188 9.90625 -14.984375 9.21875 -14.984375 C 8.476562 -14.984375 7.800781 -14.773438 7.1875 -14.359375 C 6.582031 -13.941406 6.097656 -13.28125 5.734375 -12.375 C 5.367188 -11.46875 5.1875 -10.296875 5.1875 -8.859375 C 5.1875 -7.441406 5.359375 -6.285156 5.703125 -5.390625 C 6.054688 -4.492188 6.539062 -3.832031 7.15625 -3.40625 C 7.78125 -2.988281 8.492188 -2.78125 9.296875 -2.78125 C 10.171875 -2.78125 10.898438 -2.945312 11.484375 -3.28125 C 12.078125 -3.613281 12.617188 -3.972656 13.109375 -4.359375 L 15 -1.953125 C 14.34375 -1.296875 13.53125 -0.734375 12.5625 -0.265625 C 11.59375 0.203125 10.425781 0.4375 9.0625 0.4375 C 7.46875 0.4375 6.050781 0.0820312 4.8125 -0.625 C 3.582031 -1.332031 2.613281 -2.375 1.90625 -3.75 C 1.207031 -5.132812 0.859375 -6.835938 0.859375 -8.859375 C 0.859375 -10.828125 1.222656 -12.5 1.953125 -13.875 C 2.679688 -15.25 3.664062 -16.289062 4.90625 -17 C 6.15625 -17.71875 7.554688 -18.078125 9.109375 -18.078125 Z M 9.109375 -18.078125 "/></g></g></g><g fill="#0071a8" fill-opacity="1"><g transform="translate(112.441528, 178.647103)"><g><path d="M 14.703125 -8.828125 C 14.703125 -6.960938 14.429688 -5.335938 13.890625 -3.953125 C 13.359375 -2.566406 12.566406 -1.488281 11.515625 -0.71875 C 10.472656 0.0507812 9.179688 0.4375 7.640625 0.4375 C 6.097656 0.4375 4.800781 0.0625 3.75 -0.6875 C 2.695312 -1.4375 1.90625 -2.503906 1.375 -3.890625 C 0.84375 -5.273438 0.578125 -6.921875 0.578125 -8.828125 C 0.578125 -10.691406 0.84375 -12.316406 1.375 -13.703125 C 1.90625 -15.085938 2.695312 -16.160156 3.75 -16.921875 C 4.800781 -17.691406 6.097656 -18.078125 7.640625 -18.078125 C 9.179688 -18.078125 10.472656 -17.703125 11.515625 -16.953125 C 12.566406 -16.210938 13.359375 -15.148438 13.890625 -13.765625 C 14.429688 -12.390625 14.703125 -10.742188 14.703125 -8.828125 Z M 10.421875 -8.828125 C 10.421875 -11.003906 10.203125 -12.582031 9.765625 -13.5625 C 9.335938 -14.550781 8.628906 -15.046875 7.640625 -15.046875 C 6.640625 -15.046875 5.921875 -14.550781 5.484375 -13.5625 C 5.054688 -12.570312 4.84375 -10.992188 4.84375 -8.828125 C 4.84375 -6.660156 5.0625 -5.082031 5.5 -4.09375 C 5.945312 -3.113281 6.660156 -2.625 7.640625 -2.625 C 8.648438 -2.625 9.363281 -3.117188 9.78125 -4.109375 C 10.207031 -5.109375 10.421875 -6.679688 10.421875 -8.828125 Z M 10.421875 -8.828125 "/></g></g></g><g fill="#0071a8" fill-opacity="1"><g transform="translate(127.706297, 178.647103)"><g><path d="M 13.828125 -17.640625 L 14.828125 0 L 11.1875 0 L 10.96875 -7.546875 C 10.945312 -8.253906 10.9375 -8.878906 10.9375 -9.421875 C 10.945312 -9.972656 10.960938 -10.492188 10.984375 -10.984375 C 11.003906 -11.472656 11.03125 -11.960938 11.0625 -12.453125 C 11.101562 -12.953125 11.144531 -13.5 11.1875 -14.09375 L 9.203125 -3 L 6.046875 -3 L 3.90625 -14.09375 C 3.957031 -13.53125 4 -13 4.03125 -12.5 C 4.070312 -12.007812 4.101562 -11.507812 4.125 -11 C 4.144531 -10.5 4.15625 -9.960938 4.15625 -9.390625 C 4.164062 -8.828125 4.164062 -8.191406 4.15625 -7.484375 L 4.015625 0 L 0.453125 0 L 1.4375 -17.640625 L 5.734375 -17.640625 L 7.6875 -6.234375 L 9.546875 -17.640625 Z M 13.828125 -17.640625 "/></g></g></g><g fill="#0071a8" fill-opacity="1"><g transform="translate(142.971066, 178.647103)"><g><path d="M 13.828125 -17.640625 L 14.828125 0 L 11.1875 0 L 10.96875 -7.546875 C 10.945312 -8.253906 10.9375 -8.878906 10.9375 -9.421875 C 10.945312 -9.972656 10.960938 -10.492188 10.984375 -10.984375 C 11.003906 -11.472656 11.03125 -11.960938 11.0625 -12.453125 C 11.101562 -12.953125 11.144531 -13.5 11.1875 -14.09375 L 9.203125 -3 L 6.046875 -3 L 3.90625 -14.09375 C 3.957031 -13.53125 4 -13 4.03125 -12.5 C 4.070312 -12.007812 4.101562 -11.507812 4.125 -11 C 4.144531 -10.5 4.15625 -9.960938 4.15625 -9.390625 C 4.164062 -8.828125 4.164062 -8.191406 4.15625 -7.484375 L 4.015625 0 L 0.453125 0 L 1.4375 -17.640625 L 5.734375 -17.640625 L 7.6875 -6.234375 L 9.546875 -17.640625 Z M 13.828125 -17.640625 "/></g></g></g><g fill="#0071a8" fill-opacity="1"><g transform="translate(158.235835, 178.647103)"><g><path d="M 10.1875 -3.8125 L 5.015625 -3.8125 L 4.078125 0 L -0.28125 0 L 5.109375 -17.640625 L 10.1875 -17.640625 L 15.578125 0 L 11.109375 0 Z M 5.671875 -6.828125 L 9.5 -6.828125 L 7.578125 -14.640625 Z M 5.671875 -6.828125 "/></g></g></g><g fill="#0071a8" fill-opacity="1"><g transform="translate(173.500605, 178.647103)"><g><path d="M 8.890625 0 L 4.234375 -14.1875 C 4.296875 -13.8125 4.363281 -13.351562 4.4375 -12.8125 C 4.507812 -12.269531 4.578125 -11.671875 4.640625 -11.015625 C 4.710938 -10.359375 4.769531 -9.660156 4.8125 -8.921875 C 4.851562 -8.179688 4.875 -7.425781 4.875 -6.65625 L 4.875 0 L 1.328125 0 L 1.328125 -17.640625 L 6.53125 -17.640625 L 11.03125 -3.53125 C 10.9375 -4.0625 10.835938 -4.695312 10.734375 -5.4375 C 10.640625 -6.175781 10.554688 -7.003906 10.484375 -7.921875 C 10.421875 -8.835938 10.390625 -9.820312 10.390625 -10.875 L 10.390625 -17.640625 L 13.953125 -17.640625 L 13.953125 0 Z M 8.890625 0 "/></g></g></g><g fill="#0071a8" fill-opacity="1"><g transform="translate(188.765374, 178.647103)"><g><path d="M 10.296875 -8.90625 C 10.296875 -10.09375 10.195312 -11.0625 10 -11.8125 C 9.800781 -12.5625 9.523438 -13.140625 9.171875 -13.546875 C 8.816406 -13.953125 8.398438 -14.226562 7.921875 -14.375 C 7.453125 -14.53125 6.941406 -14.609375 6.390625 -14.609375 L 5.5 -14.609375 L 5.5 -3.015625 L 6.390625 -3.015625 C 6.960938 -3.015625 7.488281 -3.101562 7.96875 -3.28125 C 8.445312 -3.46875 8.859375 -3.78125 9.203125 -4.21875 C 9.554688 -4.65625 9.828125 -5.253906 10.015625 -6.015625 C 10.203125 -6.785156 10.296875 -7.75 10.296875 -8.90625 Z M 14.625 -8.90625 C 14.625 -7.113281 14.382812 -5.632812 13.90625 -4.46875 C 13.4375 -3.3125 12.800781 -2.40625 12 -1.75 C 11.195312 -1.101562 10.28125 -0.648438 9.25 -0.390625 C 8.226562 -0.128906 7.171875 0 6.078125 0 L 1.328125 0 L 1.328125 -17.640625 L 5.78125 -17.640625 C 6.90625 -17.640625 7.992188 -17.519531 9.046875 -17.28125 C 10.109375 -17.050781 11.054688 -16.625 11.890625 -16 C 12.722656 -15.375 13.382812 -14.488281 13.875 -13.34375 C 14.375 -12.207031 14.625 -10.726562 14.625 -8.90625 Z M 14.625 -8.90625 "/></g></g></g><g fill="#0071a8" fill-opacity="1"><g transform="translate(204.030143, 178.647103)"><g/></g></g><g fill="#0071a8" fill-opacity="1"><g transform="translate(219.294912, 178.647103)"><g><path d="M 2.359375 0 L 2.359375 -17.640625 L 6.546875 -17.640625 L 6.546875 -3.296875 L 14.1875 -3.296875 L 13.75 0 Z M 2.359375 0 "/></g></g></g><g fill="#0071a8" fill-opacity="1"><g transform="translate(234.559682, 178.647103)"><g><path d="M 13.359375 -17.640625 L 13.359375 -14.578125 L 9.71875 -14.578125 L 9.71875 -3.0625 L 13.359375 -3.0625 L 13.359375 0 L 1.90625 0 L 1.90625 -3.0625 L 5.546875 -3.0625 L 5.546875 -14.578125 L 1.90625 -14.578125 L 1.90625 -17.640625 Z M 13.359375 -17.640625 "/></g></g></g><g fill="#0071a8" fill-opacity="1"><g transform="translate(249.824451, 178.647103)"><g><path d="M 8.890625 0 L 4.234375 -14.1875 C 4.296875 -13.8125 4.363281 -13.351562 4.4375 -12.8125 C 4.507812 -12.269531 4.578125 -11.671875 4.640625 -11.015625 C 4.710938 -10.359375 4.769531 -9.660156 4.8125 -8.921875 C 4.851562 -8.179688 4.875 -7.425781 4.875 -6.65625 L 4.875 0 L 1.328125 0 L 1.328125 -17.640625 L 6.53125 -17.640625 L 11.03125 -3.53125 C 10.9375 -4.0625 10.835938 -4.695312 10.734375 -5.4375 C 10.640625 -6.175781 10.554688 -7.003906 10.484375 -7.921875 C 10.421875 -8.835938 10.390625 -9.820312 10.390625 -10.875 L 10.390625 -17.640625 L 13.953125 -17.640625 L 13.953125 0 Z M 8.890625 0 "/></g></g></g><g fill="#0071a8" fill-opacity="1"><g transform="translate(265.08922, 178.647103)"><g><path d="M 6.546875 -14.65625 L 6.546875 -10.421875 L 12.65625 -10.421875 L 12.65625 -7.5 L 6.546875 -7.5 L 6.546875 -2.984375 L 13.90625 -2.984375 L 13.90625 0 L 2.359375 0 L 2.359375 -17.640625 L 13.890625 -17.640625 L 13.484375 -14.65625 Z M 6.546875 -14.65625 "/></g></g></g><g fill="#5b5b5b" fill-opacity="1"><g transform="translate(165.430848, 193.842263)"><g><path d="M 0.78125 0 L 0.78125 -7.171875 L 2.484375 -7.171875 C 3.316406 -7.171875 3.960938 -6.910156 4.421875 -6.390625 C 4.890625 -5.867188 5.125 -5.128906 5.125 -4.171875 L 5.125 -2.984375 C 5.125 -2.023438 4.890625 -1.285156 4.421875 -0.765625 C 3.953125 -0.253906 3.269531 0 2.375 0 Z M 1.671875 -6.390625 L 1.671875 -0.78125 L 2.40625 -0.78125 C 3.03125 -0.78125 3.488281 -0.957031 3.78125 -1.3125 C 4.082031 -1.675781 4.234375 -2.21875 4.234375 -2.9375 L 4.234375 -4.203125 C 4.234375 -4.960938 4.085938 -5.515625 3.796875 -5.859375 C 3.503906 -6.210938 3.066406 -6.390625 2.484375 -6.390625 Z M 1.671875 -6.390625 "/></g></g></g><g fill="#5b5b5b" fill-opacity="1"><g transform="translate(173.431467, 193.842263)"><g><path d="M 4.21875 -3.3125 L 1.671875 -3.3125 L 1.671875 -0.78125 L 4.640625 -0.78125 L 4.640625 0 L 0.78125 0 L 0.78125 -7.171875 L 4.578125 -7.171875 L 4.578125 -6.390625 L 1.671875 -6.390625 L 1.671875 -4.09375 L 4.21875 -4.09375 Z M 4.21875 -3.3125 "/></g></g></g><g fill="#5b5b5b" fill-opacity="1"><g transform="translate(180.683231, 193.842263)"><g><path d="M 2.828125 -1.390625 L 4.46875 -7.171875 L 5.453125 -7.171875 L 3.21875 0 L 2.4375 0 L 0.203125 -7.171875 L 1.1875 -7.171875 Z M 2.828125 -1.390625 "/></g></g></g><g fill="#5b5b5b" fill-opacity="1"><g transform="translate(188.575464, 193.842263)"><g/></g></g><g fill="#5b5b5b" fill-opacity="1"><g transform="translate(193.127405, 193.842263)"><g><path d="M 4.96875 -6.390625 L 3.078125 -6.390625 L 3.078125 0 L 2.171875 0 L 2.171875 -6.390625 L 0.296875 -6.390625 L 0.296875 -7.171875 L 4.96875 -7.171875 Z M 4.96875 -6.390625 "/></g></g></g><g fill="#5b5b5b" fill-opacity="1"><g transform="translate(200.62057, 193.842263)"><g><path d="M 4.21875 -3.3125 L 1.671875 -3.3125 L 1.671875 -0.78125 L 4.640625 -0.78125 L 4.640625 0 L 0.78125 0 L 0.78125 -7.171875 L 4.578125 -7.171875 L 4.578125 -6.390625 L 1.671875 -6.390625 L 1.671875 -4.09375 L 4.21875 -4.09375 Z M 4.21875 -3.3125 "/></g></g></g><g fill="#5b5b5b" fill-opacity="1"><g transform="translate(207.872333, 193.842263)"><g><path d="M 5.28125 -2.28125 C 5.238281 -1.507812 5.019531 -0.921875 4.625 -0.515625 C 4.226562 -0.109375 3.675781 0.09375 2.96875 0.09375 C 2.238281 0.09375 1.660156 -0.175781 1.234375 -0.71875 C 0.816406 -1.269531 0.609375 -2.015625 0.609375 -2.953125 L 0.609375 -4.25 C 0.609375 -5.175781 0.828125 -5.910156 1.265625 -6.453125 C 1.703125 -7.003906 2.296875 -7.28125 3.046875 -7.28125 C 3.734375 -7.28125 4.265625 -7.070312 4.640625 -6.65625 C 5.023438 -6.238281 5.238281 -5.644531 5.28125 -4.875 L 4.359375 -4.875 C 4.316406 -5.457031 4.191406 -5.875 3.984375 -6.125 C 3.785156 -6.375 3.472656 -6.5 3.046875 -6.5 C 2.554688 -6.5 2.175781 -6.304688 1.90625 -5.921875 C 1.644531 -5.535156 1.515625 -4.972656 1.515625 -4.234375 L 1.515625 -2.921875 C 1.515625 -2.191406 1.632812 -1.632812 1.875 -1.25 C 2.125 -0.863281 2.484375 -0.671875 2.953125 -0.671875 C 3.429688 -0.671875 3.769531 -0.785156 3.96875 -1.015625 C 4.175781 -1.253906 4.304688 -1.675781 4.359375 -2.28125 Z M 5.28125 -2.28125 "/></g></g></g><g fill="#5b5b5b" fill-opacity="1"><g transform="translate(215.833538, 193.842263)"><g><path d="M 5.46875 0 L 4.5625 0 L 4.5625 -3.3125 L 1.671875 -3.3125 L 1.671875 0 L 0.78125 0 L 0.78125 -7.171875 L 1.671875 -7.171875 L 1.671875 -4.09375 L 4.5625 -4.09375 L 4.5625 -7.171875 L 5.46875 -7.171875 Z M 5.46875 0 "/></g></g></g></svg>